<?xml version="1.0" encoding="UTF-8" standalone="no"?>
<svg width="192px" height="192px" viewBox="0 0 192 192" version="1.1" xmlns="http://www.w3.org/2000/svg" xmlns:xlink="http://www.w3.org/1999/xlink" xmlns:sketch="http://www.bohemiancoding.com/sketch/ns">
    <title>penguin_superhero</title>
    <description>Created with Sketch (http://www.bohemiancoding.com/sketch)</description>
    <defs></defs>
    <g id="Page-1" stroke="none" stroke-width="1" fill="none" fill-rule="evenodd" sketch:type="MSPage">
        <g id="penguin_superhero" sketch:type="MSArtboardGroup">
            <g id="hero-penguin" sketch:type="MSLayerGroup" transform="translate(43.000000, 42.000000)">
                <path d="M99.8025461,64.8425854 C99.9223373,70.8216211 97.6662978,74.4102441 95.1108543,71.7937823 C91.1294083,63.4944659 87.5716518,51.3227752 79.9209758,50.4306894 C79.9209758,50.4306894 86.9612593,61.57811 89.9243042,79.730423 C89.8571845,87.8714761 89.7174528,92.9390402 83.945738,98.8956375 C92.53293,106.227583 99.889,109.872 99.889,109.872 C99.889,109.872 100.87,96.26 110.737,93.358 C120.6,90.454 129.678,85.629 129.842,72.123 C130.091,51.977 135.545,46.468 135.545,46.468 C118.981797,61.0618958 82.1060386,29.6716769 77.602283,33.6506758 C82.1029877,39.6920908 99.5041669,49.9498657 99.8025461,64.8425854 Z" id="cape" fill="#D0011B" sketch:type="MSShapeGroup"></path>
                <path d="M56.0960489,99.47698 C54.372281,99.3004003 52.641346,99.1548731 50.9241559,99.1403172 L50.6662825,99.1403172 L47.7105199,99.1403172 L47.4526465,99.1403172 C45.605817,99.1562337 43.7430963,99.3235122 41.8905044,99.5179515 L41.8905044,99.5179515 C43,96.1502623 43,93 43,93 L42.8999819,93 C42.9655697,92.6768901 43,92.3424658 43,92 C43,89.2385761 40.7614239,87 38,87 C37.5355365,87 37.0858646,87.0633299 36.6591481,87.1818257 C35.9318146,85.3193867 34.119987,84 32,84 C29.880013,84 28.0681854,85.3193867 27.3408519,87.1818257 C26.9141354,87.0633299 26.4644635,87 26,87 C23.2385761,87 21,89.2385761 21,92 C21,92.3424658 21.0344303,92.6768901 21.1000181,93 L21,93 C21,93 21,93.5111604 21.0725173,94.3417895 C13.1282575,83.407101 22.1218262,62.1863064 25.5743127,53.9268938 C28.1746577,47.7084651 30.9869108,42.4253692 35.3364743,38.8928609 L35.3364743,38.8928609 C35.636747,32.5250748 35.9467862,26.2155944 36.2231669,20.305309 C36.3440637,17.718158 36.1225284,15.0623975 36.6152648,13.0631921 C37.2569984,10.4598416 38.9201472,8.75127374 40.7982963,8.29864143 C42.1150918,7.98132236 43.8383622,8.43871922 44.7192756,9.25155156 C47.1535503,11.4994665 46.9633828,17.2664786 50.6007446,17.4465786 C52.7625112,17.5533046 53.4343057,15.831396 53.9982732,14.7784303 C54.8360558,13.2147048 54.9373478,11.378447 55.9587629,10.0138797 C58.4995575,6.62151961 63.1766323,8.07661337 64.5855709,12.491446 C65.2122741,14.4582525 65.0286416,17.2455146 65.1077147,19.7335629 C65.343313,27.1104336 65.5683583,34.3503811 65.7907634,41.5711316 C68.6613647,44.8817767 70.795812,49.1250933 72.8042681,53.9257677 C76.3134199,62.3284042 85.5589346,84.1467518 76.8721075,94.9003805 C77,93.7461503 77,93 77,93 L76.8999819,93 C76.9655697,92.6768901 77,92.3424658 77,92 C77,89.2385761 74.7614239,87 72,87 C71.5355365,87 71.0858646,87.0633299 70.6591481,87.1818257 C69.9318146,85.3193867 68.119987,84 66,84 C63.880013,84 62.0681854,85.3193867 61.3408519,87.1818257 C60.9141354,87.0633299 60.4644635,87 60,87 C57.2385761,87 55,89.2385761 55,92 C55,92.3424658 55.0344303,92.6768901 55.1000181,93 L55,93 C55,93 55,96.1247566 56.0960489,99.47698 Z M58.9397237,104.582648 C56.5314573,104.372564 54.1288359,104.131689 51.6929798,104.035736 L48.3046111,104.035736 C45.139493,104.161291 42.0324989,104.52987 38.8930824,104.758705 L38.8930824,104.758705 C37.2964986,106.399407 35.0792352,107.538672 32,107.538672 C28.0698638,107.538671 25.5439067,105.682771 23.9204365,103.297142 C22.5876896,102.922052 21.5394124,102.573382 21.0478486,102.360379 C15.9671451,100.15518 9.9783145,94.8166985 9.9783145,82.7481824 C9.9783145,74.1528264 12.4252641,63.5456696 19.6995294,51.0022403 C15.4881127,51.0022403 10.8919903,59.4797263 9.55661796,61.7776194 C6.61953858,66.8288644 6.29771754,73.4948142 3.23486901,72.8459569 C-2.50797198,71.3628546 0.845255302,58.7690731 2.33044091,55.5797165 C7.64973582,44.139459 16.5589999,39.1969291 22.1427799,34.167427 C27.0551747,29.73643 30.1827573,9.07599102 31.6771907,6.98980622 C33.5045423,4.42870826 37.8380291,0.473768791 46.8360714,0 L53.2392004,0 C62.2372427,0.473768791 66.5670304,4.42870826 68.3962316,6.98866185 C69.890665,9.07599102 73.0219467,29.73643 77.9343414,34.1662827 C83.4644846,39.2118059 92.3552533,44.1554802 97.6689995,55.5797165 C99.1523356,58.7690731 102.509262,71.3628546 96.766421,72.8459569 C93.9791548,73.3769442 93.3817514,66.8288644 90.4409729,61.7776194 C89.103751,59.4797263 84.5131773,51.0022403 80.3036101,51.0022403 C87.5778754,63.5456696 90.0211259,74.1528264 90.0211259,82.7481824 C90.0211259,94.8166985 84.0359944,100.15518 78.9515919,102.360379 C78.2043378,102.684479 76.0514462,103.348309 73.6133897,103.934474 C71.9845753,106.005283 69.5723711,107.538672 66,107.538672 C62.8117867,107.538671 60.5476375,106.317338 58.9397237,104.582648 Z M42.0949577,18.8469521 C45.272106,17.9511608 45.4726466,22.4218089 43.1706548,22.7745361 C40.8264035,23.1333058 39.4418276,19.5947036 42.0949577,18.8469521 Z M57.4889579,18.8677272 C60.7559972,17.884662 60.9308144,22.4202697 58.5484564,22.7699708 C57.5040936,22.9230588 55.8550599,22.5448413 56.1275024,20.3685901 C56.195613,19.8237769 56.4869751,19.1694007 57.4889579,18.8677272 Z M54.9206319,24.494281 C56.2296342,24.9685963 57.7048893,25.6665584 57.7233619,26.7939914 C57.7634919,29.2466325 52.1860592,30.1285714 49.1877752,30.1285714 C46.594613,30.1285714 40.7649346,29.3363212 40.6521885,26.9089769 C40.592312,25.6257385 42.0535534,24.930651 43.2001248,24.494281 C44.6034007,23.9601733 45.6378629,23.8359889 47.4042197,23.6893824 C49.9254027,23.4801087 52.71603,23.6957066 54.9206319,24.494281 Z" id="Shape-copy" fill="#000000" sketch:type="MSShapeGroup"></path>
                <polygon id="Star-1" fill="#D0021B" sketch:type="MSShapeGroup" points="50.9999997 60 43.9465775 63.7082043 45.293661 55.8541022 39.5873217 50.2917963 47.4732896 49.1458972 51.0000001 42 54.5267128 49.145899 62.4126801 50.291802 56.7063385 55.8541037 58.0534222 63.7082045 "></polygon>
            </g>
        </g>
    </g>
</svg>