<?xml version="1.0" encoding="UTF-8" standalone="no"?>
<svg
   xmlns:sketch="http://www.bohemiancoding.com/sketch/ns"
   xmlns:dc="http://purl.org/dc/elements/1.1/"
   xmlns:cc="http://creativecommons.org/ns#"
   xmlns:rdf="http://www.w3.org/1999/02/22-rdf-syntax-ns#"
   xmlns:svg="http://www.w3.org/2000/svg"
   xmlns="http://www.w3.org/2000/svg"
   xmlns:sodipodi="http://sodipodi.sourceforge.net/DTD/sodipodi-0.dtd"
   xmlns:inkscape="http://www.inkscape.org/namespaces/inkscape"
   width="159.44499"
   height="159.44499"
   viewBox="0 0 159.44499 159.44499"
   version="1.1"
   id="svg3371"
   inkscape:version="0.91 r13725"
   sodipodi:docname="document-icon.svg">
  <metadata
     id="metadata3385">
    <rdf:RDF>
      <cc:Work
         rdf:about="">
        <dc:format>image/svg+xml</dc:format>
        <dc:type
           rdf:resource="http://purl.org/dc/dcmitype/StillImage" />
        <dc:title>penguin_superhero</dc:title>
      </cc:Work>
    </rdf:RDF>
  </metadata>
  <sodipodi:namedview
     pagecolor="#a7f0db"
     bordercolor="#666666"
     borderopacity="1"
     objecttolerance="10"
     gridtolerance="10"
     guidetolerance="10"
     inkscape:pageopacity="0"
     inkscape:pageshadow="2"
     inkscape:window-width="1920"
     inkscape:window-height="1014"
     id="namedview3383"
     showgrid="false"
     borderlayer="true"
     fit-margin-top="0"
     fit-margin-left="0"
     fit-margin-right="0"
     fit-margin-bottom="0"
     inkscape:zoom="1.5062848"
     inkscape:cx="114.54307"
     inkscape:cy="91.700829"
     inkscape:window-x="0"
     inkscape:window-y="27"
     inkscape:window-maximized="1"
     inkscape:current-layer="Page-1" />
  <title
     id="title3373">penguin_superhero</title>
  <description>Created with Sketch (http://www.bohemiancoding.com/sketch)</description>
  <defs
     id="defs3375" />
  <g
     id="Page-1"
     sketch:type="MSPage"
     style="fill:none;fill-rule:evenodd;stroke:none;stroke-width:1"
     transform="translate(-16.430321,-18.237179)">
    <g
       inkscape:groupmode="layer"
       id="layer1"
       inkscape:label="circle" />
    <g
       id="g4209"
       transform="translate(2.3235978,-2.9874829)">
      <g
         id="g4204">
        <path
           id="path4193"
           style="fill:#ffffff;fill-opacity:1;stroke:none"
           d="M 170.87531,100.45966 A 77.222496,77.222496 0 0 1 93.652817,177.68216 77.222496,77.222496 0 0 1 16.430321,100.45966 77.222496,77.222496 0 0 1 93.652817,23.237167 77.222496,77.222496 0 0 1 170.87531,100.45966 Z"
           inkscape:connector-curvature="0" />
      </g>
    </g>
    <text
       xml:space="preserve"
       style="font-style:normal;font-weight:normal;font-size:40px;line-height:125%;font-family:sans-serif;letter-spacing:0px;word-spacing:0px;fill:#000000;fill-opacity:1;stroke:none;stroke-width:1px;stroke-linecap:butt;stroke-linejoin:miter;stroke-opacity:1"
       x="84.478546"
       y="98.015961"
       id="text4199"
       sodipodi:linespacing="125%"><tspan
         sodipodi:role="line"
         id="tspan4201"
         x="84.478546"
         y="98.015961" /></text>
    <path
       style="fill:#3a5750;fill-opacity:1;stroke:none;stroke-opacity:1"
       d="m 55.180641,50.123541 c -0.3039,0 -0.5488,0.271106 -0.54883,0.607422 l 0,94.080077 c 0,0.33631 0.24493,0.60742 0.54883,0.60742 l 81.523419,0 c 0.3039,0 0.54883,-0.27111 0.54883,-0.60742 l 0,-66.027343 -25.41797,0 c -0.30238,0 -0.54687,-0.26888 -0.54687,-0.603515 l 0,-28.056641 -56.107409,0 z m 58.160139,0.328125 c 0,0 -0.49414,0.243351 -0.49414,0.546875 l 0,25.519531 c 0,0.303524 0.21987,0.546875 0.49414,0.546875 l 23.0586,0 c 0.27427,0 0.49609,-0.546875 0.49609,-0.546875 L 113.34078,50.451666 Z m -55.494129,2.53125 50.531239,0 c 0.32431,0 0.58688,0.289541 0.58594,0.648438 l -0.0684,26.123047 c -0.002,0.484803 0.86855,1.363834 1.30664,1.365234 l 23.73242,0.07617 c 0.34392,0.0011 0.6211,0.30691 0.6211,0.6875 l 0,59.621095 c 0,0.38059 -0.27718,0.6875 -0.6211,0.6875 -25.36863,0.0178 -50.712869,0.0293 -76.087879,0.0293 -0.32431,0 -0.58594,-0.28953 -0.58594,-0.64843 l 0,-87.941408 c 0,-0.358898 0.26163,-0.648434 0.58594,-0.648438 z m 2.39258,9.345703 c -0.41621,0 -0.75,0.333788 -0.75,0.75 l 0,9.765625 c 0,0.416213 0.33379,0.75 0.75,0.75 l 45.798819,0 c 0.41621,0 0.75,-0.333787 0.75,-0.75 l 0,-9.765625 c 0,-0.416212 -0.33379,-0.75 -0.75,-0.75 l -45.798819,0 z m -0.03125,26.041016 c -0.39814,0 -0.71875,0.320614 -0.71875,0.71875 l 0,44.814445 c 0,0.39814 0.32061,0.71876 0.71875,0.71876 l 71.589829,0 c 0.39814,0 0.71875,-0.32062 0.71875,-0.71876 l 0,-44.814445 c 0,-0.398136 -0.32061,-0.71875 -0.71875,-0.71875 l -71.589829,0 z"
       id="rect4990"
       inkscape:connector-curvature="0" />
  </g>
</svg>
