<?xml version="1.0" encoding="UTF-8" standalone="no"?>
<svg
   xmlns:sketch="http://www.bohemiancoding.com/sketch/ns"
   xmlns:dc="http://purl.org/dc/elements/1.1/"
   xmlns:cc="http://creativecommons.org/ns#"
   xmlns:rdf="http://www.w3.org/1999/02/22-rdf-syntax-ns#"
   xmlns:svg="http://www.w3.org/2000/svg"
   xmlns="http://www.w3.org/2000/svg"
   xmlns:sodipodi="http://sodipodi.sourceforge.net/DTD/sodipodi-0.dtd"
   xmlns:inkscape="http://www.inkscape.org/namespaces/inkscape"
   width="159.44499"
   height="159.44499"
   viewBox="0 0 159.44499 159.44499"
   version="1.1"
   id="svg3371"
   inkscape:version="0.91 r13725"
   sodipodi:docname="icon-template.svg">
  <metadata
     id="metadata3385">
    <rdf:RDF>
      <cc:Work
         rdf:about="">
        <dc:format>image/svg+xml</dc:format>
        <dc:type
           rdf:resource="http://purl.org/dc/dcmitype/StillImage" />
        <dc:title>penguin_superhero</dc:title>
      </cc:Work>
    </rdf:RDF>
  </metadata>
  <sodipodi:namedview
     pagecolor="#a7f0db"
     bordercolor="#666666"
     borderopacity="1"
     objecttolerance="10"
     gridtolerance="10"
     guidetolerance="10"
     inkscape:pageopacity="0"
     inkscape:pageshadow="2"
     inkscape:window-width="1920"
     inkscape:window-height="1014"
     id="namedview3383"
     showgrid="false"
     borderlayer="true"
     fit-margin-top="0"
     fit-margin-left="0"
     fit-margin-right="0"
     fit-margin-bottom="0"
     inkscape:zoom="3.0125695"
     inkscape:cx="58.380771"
     inkscape:cy="101.73201"
     inkscape:window-x="0"
     inkscape:window-y="27"
     inkscape:window-maximized="1"
     inkscape:current-layer="penguin_superhero" />
  <title
     id="title3373">penguin_superhero</title>
  <description>Created with Sketch (http://www.bohemiancoding.com/sketch)</description>
  <defs
     id="defs3375" />
  <g
     id="Page-1"
     sketch:type="MSPage"
     style="fill:none;fill-rule:evenodd;stroke:none;stroke-width:1"
     transform="translate(-16.430321,-18.237179)">
    <g
       inkscape:groupmode="layer"
       id="layer1"
       inkscape:label="circle" />
    <g
       id="g4209"
       transform="translate(2.3235978,-2.9874829)">
      <g
         id="g4204">
        <path
           id="path4193"
           style="fill:#ffffff;fill-opacity:1;stroke:none"
           d="M 170.87531,100.45966 A 77.222496,77.222496 0 0 1 93.652817,177.68216 77.222496,77.222496 0 0 1 16.430321,100.45966 77.222496,77.222496 0 0 1 93.652817,23.237167 77.222496,77.222496 0 0 1 170.87531,100.45966 Z"
           inkscape:connector-curvature="0" />
        <g
           id="penguin_superhero"
           sketch:type="MSArtboardGroup"
           style="opacity:1">
          <path
             id="Shape-copy"
             style="fill:#3a5750;fill-opacity:1"
             d="m 99.096049,141.47698 c -1.723768,-0.17658 -3.454703,-0.32211 -5.171893,-0.33666 l -0.257874,0 -2.955762,0 -0.257874,0 c -1.846829,0.0159 -3.70955,0.18319 -5.562142,0.37763 l 0,0 C 86,138.15026 86,135 86,135 l -0.100018,0 C 85.96557,134.67689 86,134.34247 86,134 c 0,-2.76142 -2.238576,-5 -5,-5 -0.464464,0 -0.914135,0.0633 -1.340852,0.18183 C 78.931815,127.31939 77.119987,126 75,126 c -2.119987,0 -3.931815,1.31939 -4.659148,3.18183 C 69.914135,129.06333 69.464463,129 69,129 c -2.761424,0 -5,2.23858 -5,5 0,0.34247 0.03443,0.67689 0.100018,1 L 64,135 c 0,0 0,0.51116 0.07252,1.34179 -7.944259,-10.93469 1.049309,-32.15548 4.501796,-40.414896 2.600345,-6.218429 5.412598,-11.501525 9.762161,-15.034033 l 0,0 c 0.300273,-6.367786 0.610312,-12.677267 0.886693,-18.587552 0.120897,-2.587151 -0.100639,-5.242912 0.392098,-7.242117 0.641733,-2.60335 2.304882,-4.311918 4.183031,-4.764551 1.316796,-0.317319 3.040066,0.140078 3.92098,0.952911 2.434274,2.247915 2.244107,8.014927 5.881469,8.195027 2.161766,0.106726 2.833561,-1.615183 3.397528,-2.668149 0.837783,-1.563725 0.939075,-3.399983 1.96049,-4.76455 2.540794,-3.39236 7.217874,-1.937267 8.626804,2.477566 0.62671,1.966807 0.44308,4.754069 0.52215,7.242117 0.2356,7.376871 0.46064,14.616818 0.68305,21.837569 2.8706,3.310645 5.00505,7.553961 7.0135,12.354636 3.50915,8.402632 12.75467,30.220982 4.06784,40.974612 C 120,135.74615 120,135 120,135 l -0.10002,0 c 0.0656,-0.32311 0.10002,-0.65753 0.10002,-1 0,-2.76142 -2.23858,-5 -5,-5 -0.46446,0 -0.91414,0.0633 -1.34085,0.18183 C 112.93182,127.31939 111.11999,126 109,126 c -2.11999,0 -3.93181,1.31939 -4.65915,3.18183 C 103.91414,129.06333 103.46446,129 103,129 c -2.76142,0 -5,2.23858 -5,5 0,0.34247 0.03443,0.67689 0.100018,1 L 98,135 c 0,0 0,3.12476 1.096049,6.47698 z m 2.843671,5.10567 c -2.408263,-0.21009 -4.810884,-0.45096 -7.24674,-0.54691 l -3.388369,0 c -3.165118,0.12555 -6.272112,0.49413 -9.411529,0.72297 l 0,0 c -1.596583,1.6407 -3.813847,2.77996 -6.893082,2.77996 -3.930136,0 -6.456093,-1.8559 -8.079564,-4.24153 -1.332746,-0.37509 -2.381024,-0.72376 -2.872587,-0.93676 -5.080704,-2.2052 -11.069534,-7.54368 -11.069534,-19.6122 0,-8.59535 2.446949,-19.20251 9.721214,-31.74594 -4.211416,0 -8.807539,8.47749 -10.142911,10.77538 -2.937079,5.05124 -3.258901,11.71719 -6.321749,11.06834 C 40.492028,113.36285 43.845255,100.76907 45.330441,97.579717 50.649736,86.139459 59.559,81.196929 65.14278,76.167427 70.055175,71.73643 73.182757,51.075991 74.677191,48.989806 76.504542,46.428708 80.838029,42.473769 89.836071,42 l 6.403129,0 c 8.99804,0.473769 13.32783,4.428708 15.15703,6.988662 1.49444,2.087329 4.62572,22.747768 9.53811,27.177621 5.53014,5.045523 14.42091,9.989197 19.73466,21.413434 1.48334,3.189353 4.84026,15.783133 -0.90258,17.266243 -2.78727,0.53098 -3.38467,-6.0171 -6.32545,-11.06834 -1.33722,-2.29789 -5.92779,-10.77538 -10.13736,-10.77538 7.27426,12.54343 9.71752,23.15059 9.71752,31.74594 0,12.06852 -5.98514,17.407 -11.06954,19.6122 -0.74725,0.3241 -2.90014,0.98793 -5.3382,1.57409 -1.62881,2.07081 -4.04102,3.6042 -7.61339,3.6042 -3.18821,0 -5.45236,-1.22133 -7.06028,-2.95602 z M 85.094958,60.846952 c 3.177148,-0.895791 3.377689,3.574857 1.075697,3.927584 -2.344252,0.35877 -3.728827,-3.179832 -1.075697,-3.927584 z m 15.394002,0.02077 c 3.26704,-0.983065 3.44185,3.552543 1.0595,3.902244 -1.04437,0.153088 -2.6934,-0.22513 -2.420958,-2.401381 0.06811,-0.544813 0.359473,-1.199189 1.361458,-1.500863 z m -2.568328,5.626554 c 1.309002,0.474315 2.784258,1.172277 2.802728,2.29971 0.0401,2.452641 -5.537301,3.33458 -8.535585,3.33458 -2.593162,0 -8.42284,-0.79225 -8.535587,-3.219594 -0.05988,-1.283239 1.401365,-1.978326 2.547937,-2.414696 1.403276,-0.534108 2.437738,-0.658292 4.204095,-0.804899 2.521183,-0.209273 5.31181,0.0063 7.516412,0.804899 z"
             inkscape:connector-curvature="0" />
        </g>
      </g>
    </g>
  </g>
</svg>
