<?xml version="1.0" encoding="UTF-8" standalone="no"?>
<svg
   xmlns:sketch="http://www.bohemiancoding.com/sketch/ns"
   xmlns:dc="http://purl.org/dc/elements/1.1/"
   xmlns:cc="http://creativecommons.org/ns#"
   xmlns:rdf="http://www.w3.org/1999/02/22-rdf-syntax-ns#"
   xmlns:svg="http://www.w3.org/2000/svg"
   xmlns="http://www.w3.org/2000/svg"
   xmlns:sodipodi="http://sodipodi.sourceforge.net/DTD/sodipodi-0.dtd"
   xmlns:inkscape="http://www.inkscape.org/namespaces/inkscape"
   width="159.44499"
   height="159.44499"
   viewBox="0 0 159.44499 159.44499"
   version="1.1"
   id="svg3371"
   inkscape:version="0.91 r13725"
   sodipodi:docname="mail-icon.svg">
  <metadata
     id="metadata3385">
    <rdf:RDF>
      <cc:Work
         rdf:about="">
        <dc:format>image/svg+xml</dc:format>
        <dc:type
           rdf:resource="http://purl.org/dc/dcmitype/StillImage" />
        <dc:title>penguin_superhero</dc:title>
      </cc:Work>
    </rdf:RDF>
  </metadata>
  <sodipodi:namedview
     pagecolor="#a7f0db"
     bordercolor="#666666"
     borderopacity="1"
     objecttolerance="10"
     gridtolerance="10"
     guidetolerance="10"
     inkscape:pageopacity="0"
     inkscape:pageshadow="2"
     inkscape:window-width="1920"
     inkscape:window-height="1014"
     id="namedview3383"
     showgrid="false"
     borderlayer="true"
     fit-margin-top="0"
     fit-margin-left="0"
     fit-margin-right="0"
     fit-margin-bottom="0"
     inkscape:zoom="2.1302083"
     inkscape:cx="205.21641"
     inkscape:cy="92.607189"
     inkscape:window-x="0"
     inkscape:window-y="27"
     inkscape:window-maximized="1"
     inkscape:current-layer="Page-1" />
  <title
     id="title3373">penguin_superhero</title>
  <description>Created with Sketch (http://www.bohemiancoding.com/sketch)</description>
  <defs
     id="defs3375" />
  <g
     id="Page-1"
     sketch:type="MSPage"
     style="fill:none;fill-rule:evenodd;stroke:none;stroke-width:1"
     transform="translate(-16.430321,-18.237179)">
    <g
       inkscape:groupmode="layer"
       id="layer1"
       inkscape:label="circle" />
    <g
       id="g4209"
       transform="translate(2.3235978,-2.9874829)">
      <g
         id="g4204">
        <path
           id="path4193"
           style="fill:#ffffff;fill-opacity:1;stroke:none"
           d="M 170.87531,100.45966 A 77.222496,77.222496 0 0 1 93.652817,177.68216 77.222496,77.222496 0 0 1 16.430321,100.45966 77.222496,77.222496 0 0 1 93.652817,23.237167 77.222496,77.222496 0 0 1 170.87531,100.45966 Z"
           inkscape:connector-curvature="0" />
      </g>
    </g>
    <text
       xml:space="preserve"
       style="font-style:normal;font-weight:normal;font-size:40px;line-height:125%;font-family:sans-serif;letter-spacing:0px;word-spacing:0px;fill:#000000;fill-opacity:1;stroke:none;stroke-width:1px;stroke-linecap:butt;stroke-linejoin:miter;stroke-opacity:1"
       x="84.478546"
       y="98.015961"
       id="text4199"
       sodipodi:linespacing="125%"><tspan
         sodipodi:role="line"
         id="tspan4201"
         x="84.478546"
         y="98.015961" /></text>
    <path
       style="fill:#3a5750;fill-opacity:1;stroke:none"
       d="m 44.011408,66.622964 c -0.36779,0 -0.66406,0.19703 -0.66406,0.4414 0.0981,1.31019 49.62288,38.544156 51.94922,38.595706 2.08241,0.0462 51.949222,-37.229716 51.949222,-38.595706 0,-0.24437 -0.29628,-0.4414 -0.66407,-0.4414 l -102.570312,0 z m -0.31641,5.54883 c -0.36779,0 -0.66406,0.29627 -0.66406,0.66406 l 0,57.425786 c 0,0.36779 0.29627,0.66406 0.66406,0.66406 l 102.570322,0 c 0.36779,0 0.66406,-0.29627 0.66406,-0.66406 l 0,-57.425786 c 0,-0.36779 -0.29627,-0.66406 -0.66406,-0.66406 l -0.20313,0 c -7.77164,6.80917 -48.681652,37.256656 -50.566402,37.214836 -2.1039,-0.0466 -42.69312,-30.421286 -50.53125,-37.214836 l -1.26954,0 z"
       id="rect4256"
       inkscape:connector-curvature="0" />
  </g>
</svg>
