<?xml version="1.0" encoding="UTF-8" standalone="no"?>
<svg
   xmlns:sketch="http://www.bohemiancoding.com/sketch/ns"
   xmlns:dc="http://purl.org/dc/elements/1.1/"
   xmlns:cc="http://creativecommons.org/ns#"
   xmlns:rdf="http://www.w3.org/1999/02/22-rdf-syntax-ns#"
   xmlns:svg="http://www.w3.org/2000/svg"
   xmlns="http://www.w3.org/2000/svg"
   xmlns:sodipodi="http://sodipodi.sourceforge.net/DTD/sodipodi-0.dtd"
   xmlns:inkscape="http://www.inkscape.org/namespaces/inkscape"
   width="159.44499"
   height="159.44499"
   viewBox="0 0 159.44499 159.44499"
   version="1.1"
   id="svg3371"
   inkscape:version="0.91 r13725"
   sodipodi:docname="projects-icon.svg">
  <metadata
     id="metadata3385">
    <rdf:RDF>
      <cc:Work
         rdf:about="">
        <dc:format>image/svg+xml</dc:format>
        <dc:type
           rdf:resource="http://purl.org/dc/dcmitype/StillImage" />
        <dc:title>penguin_superhero</dc:title>
      </cc:Work>
    </rdf:RDF>
  </metadata>
  <sodipodi:namedview
     pagecolor="#a7f0db"
     bordercolor="#666666"
     borderopacity="1"
     objecttolerance="10"
     gridtolerance="10"
     guidetolerance="10"
     inkscape:pageopacity="0"
     inkscape:pageshadow="2"
     inkscape:window-width="1920"
     inkscape:window-height="1014"
     id="namedview3383"
     showgrid="false"
     borderlayer="true"
     fit-margin-top="0"
     fit-margin-left="0"
     fit-margin-right="0"
     fit-margin-bottom="0"
     inkscape:zoom="2.8284271"
     inkscape:cx="158.22569"
     inkscape:cy="68.767194"
     inkscape:window-x="0"
     inkscape:window-y="27"
     inkscape:window-maximized="1"
     inkscape:current-layer="Page-1" />
  <title
     id="title3373">penguin_superhero</title>
  <description>Created with Sketch (http://www.bohemiancoding.com/sketch)</description>
  <defs
     id="defs3375" />
  <g
     id="Page-1"
     sketch:type="MSPage"
     style="fill:none;fill-rule:evenodd;stroke:none;stroke-width:1"
     transform="translate(-16.430321,-18.237179)">
    <g
       inkscape:groupmode="layer"
       id="layer1"
       inkscape:label="circle" />
    <g
       id="g4209"
       transform="translate(2.3235978,-2.9874829)">
      <g
         id="g4204">
        <path
           id="path4193"
           style="fill:#ffffff;fill-opacity:1;stroke:none"
           d="M 170.87531,100.45966 A 77.222496,77.222496 0 0 1 93.652817,177.68216 77.222496,77.222496 0 0 1 16.430321,100.45966 77.222496,77.222496 0 0 1 93.652817,23.237167 77.222496,77.222496 0 0 1 170.87531,100.45966 Z"
           inkscape:connector-curvature="0" />
      </g>
    </g>
    <text
       xml:space="preserve"
       style="font-style:normal;font-weight:normal;font-size:40px;line-height:125%;font-family:sans-serif;letter-spacing:0px;word-spacing:0px;fill:#000000;fill-opacity:1;stroke:none;stroke-width:1px;stroke-linecap:butt;stroke-linejoin:miter;stroke-opacity:1"
       x="84.478546"
       y="98.015961"
       id="text4199"
       sodipodi:linespacing="125%"><tspan
         sodipodi:role="line"
         id="tspan4201"
         x="84.478546"
         y="98.015961" /></text>
    <path
       style="fill:#3a5750;fill-opacity:1;stroke:none;stroke-opacity:1"
       d="m 44.948352,62.780975 c -1.50152,0 -2.70899,1.20747 -2.70899,2.70899 l 0,4.59375 23.17969,0 c 1.50151,0 2.71094,1.20747 2.71094,2.70898 l 0,19.8086 c 0,1.50151 -1.20943,2.70898 -2.71094,2.70898 l -23.17969,0 0,14.673825 17.30274,0 c 0.94632,0 1.70898,0.7607 1.70898,1.70703 l 0,12.48438 c 0,0.94632 -0.76266,1.70703 -1.70898,1.70703 l -17.30274,0 0,1.90429 c 0,1.50152 1.20747,2.70899 2.70899,2.70899 l 107.441398,0 c 1.50152,0 2.70899,-1.20747 2.70899,-2.70899 l -8e-5,-33.648676 -4.60058,-4.967616 0,-23.680573 c 0,-1.50152 -1.20697,-2.70899 -2.70849,-2.70899 z m -11,8.53125 c -1.35512,0 -2.44727,1.09216 -2.44727,2.44727 l 0,17.875 c 0,1.35511 1.09215,2.44726 2.44727,2.44726 l 30.59765,0 c 1.35512,0 2.44531,-1.09215 2.44531,-2.44726 l 0,-17.875 c 0,-1.35511 -1.09019,-2.44727 -2.44531,-2.44727 z m 62.74414,0.0137 c 2.06432,-0.0383 4.170088,0.40596 5.976558,1.30664 2.25183,1.12273 4.22904,2.98621 6.27344,5.90821 l 0.11718,0.16406 0.11524,-0.16406 c 2.1261,-3.0213 3.95452,-4.74326 6.27734,-5.90821 2.87218,-1.44045 6.5533,-1.71386 9.57227,-0.71093 3.9041,1.29698 6.79596,4.54954 7.59961,8.54687 0.21578,1.0733 0.2143,2.98647 -0.002,4.0625 -0.65403,3.25412 -2.65213,5.99196 -5.59179,7.6582 -1.5646,0.88684 -3.17374,1.34013 -5.23047,1.47266 -4.90344,0.31599 -8.4533,-1.55148 -11.75586,-6.18359 -0.23327,-0.32718 -0.54236,-0.78003 -0.6875,-1.00586 -0.14513,-0.22583 -0.27873,-0.41031 -0.29688,-0.41016 -0.0181,1.4e-4 -0.18195,0.22904 -0.36328,0.50977 -1.01716,1.5747 -2.49534,3.32718 -3.60937,4.27734 -2.6227,2.23691 -5.350038,3.06915 -9.164058,2.79492 -2.14561,-0.15427 -4.31577,-0.95787 -6.07618,-2.25 -0.8632,-0.63359 -2.05227,-1.87767 -2.64062,-2.76172 -0.82194,-1.23502 -1.38713,-2.55245 -1.67969,-3.9082 -0.17057,-0.79041 -0.17057,-3.66271 0,-4.45312 0.83351,-3.86248 3.75932,-7.09201 7.56641,-8.34961 1.13664,-0.37547 2.36101,-0.57273 3.59961,-0.59571 z m 33.740228,0.81446 c 0.36651,0 0.46289,0.021 0.46289,0.0996 0,0.066 -0.0673,0.0996 -0.19922,0.0996 l -0.19726,0 0,0.42773 c 0,0.33718 -0.0218,0.42969 -0.0996,0.42969 -0.0778,0 -0.0977,-0.0925 -0.0977,-0.42969 0,-0.41342 -0.007,-0.42773 -0.16601,-0.42773 -0.10262,0 -0.16407,-0.038 -0.16407,-0.0996 0,-0.0785 0.0944,-0.0996 0.46094,-0.0996 z m 0.59375,0.0117 c 0.0206,-0.007 0.0462,-0.005 0.082,0 0.11631,0.0165 0.17083,0.0954 0.24805,0.36719 0.0541,0.19049 0.11564,0.34765 0.13867,0.34765 0.023,0 0.0858,-0.15716 0.13867,-0.34765 0.0742,-0.26767 0.12947,-0.35089 0.24024,-0.36719 0.137,-0.0202 0.14262,0.002 0.14257,0.51172 0,0.42922 -0.0198,0.5332 -0.0996,0.5332 -0.0732,0 -0.1008,-0.0827 -0.10547,-0.31445 l -0.006,-0.3125 -0.10352,0.3125 c -0.14138,0.42505 -0.28195,0.41376 -0.41992,-0.0332 l -0.10742,-0.34571 -0.008,0.34571 c -0.006,0.26047 -0.033,0.34765 -0.10743,0.34765 -0.0798,0 -0.0996,-0.10398 -0.0996,-0.5332 0,-0.38554 0.005,-0.49126 0.0664,-0.51172 z m -33.800778,3.10351 c -0.6633,-0.018 -1.32504,0.006 -1.72461,0.0801 -3.40898,0.62854 -5.88198,3.1786 -6.24414,6.43555 -0.32382,2.91222 1.27161,5.7588 4.00195,7.14063 1.01923,0.51584 1.94058,0.76353 3.13281,0.83984 1.14385,0.0732 1.23989,0.0733 1.88086,0.002 3.061788,-0.34031 4.994038,-1.90304 7.816408,-6.32422 0.33343,-0.52231 0.61995,-0.98559 0.63672,-1.0293 0.038,-0.0992 -0.9837,-1.65102 -1.78125,-2.70507 -0.7761,-1.02572 -2.14004,-2.38908 -2.91211,-2.91211 -0.99757,-0.67579 -1.93133,-1.08901 -3.066408,-1.35352 -0.4107,-0.0957 -1.07693,-0.15579 -1.74023,-0.17383 z m 23.667968,0 c -0.66235,0.0179 -1.33021,0.0778 -1.74219,0.17383 -2.73395,0.6371 -4.77899,2.33922 -7.18359,5.97461 -0.3336,0.50436 -0.59295,0.95239 -0.57618,0.9961 0.0572,0.14901 1.2409,1.97705 1.70899,2.63867 2.21504,3.13076 4.21504,4.5148 6.84375,4.73828 0.54124,0.046 2.13569,-0.0304 2.70508,-0.12891 3.89166,-0.67324 6.6282,-4.14198 6.21289,-7.87695 -0.36317,-3.26611 -2.81341,-5.78639 -6.25586,-6.43555 -0.39378,-0.0743 -1.05054,-0.0979 -1.71289,-0.0801 z m -1.3457,3.67969 1.12109,0 1.12109,0 0,1.08985 0,1.08789 1.05664,0 1.05469,0 0,1.05468 0,1.05664 -1.05469,0 -1.05664,0 0,1.08789 0,1.0879 -1.12109,0 -1.12109,0 0,-1.0879 0,-1.08789 -1.05469,0 -1.05664,0 0,-1.05664 0,-1.05468 1.05664,0 1.05469,0 0,-1.08789 z m -26.322268,2.375 3.92578,0 3.925778,0 0,0.85742 0,0.85743 -3.925778,0 -3.92578,0 0,-0.85743 z m 36.548828,14.3711 c 1.56054,0.004 2.49119,0.74154 2.91406,2.31054 0.18601,0.69019 0.20445,2.341755 0.0332,2.978515 -0.36745,1.36601 -1.09916,2.17474 -2.24023,2.47851 -0.44288,0.1179 -1.36411,0.11341 -1.82227,-0.01 -1.05159,-0.28279 -1.72372,-1.04567 -2.03125,-2.30468 -0.15981,-0.65423 -0.1597,-2.341575 0,-2.935545 0.27385,-1.0186 0.81395,-1.77364 1.54688,-2.16211 0.53039,-0.28112 0.87295,-0.35719 1.59961,-0.35547 z m -36.416018,0.0606 1.59961,0.0352 c 2.01873,0.0442 2.52342,0.16282 3.07813,0.71875 0.63325,0.63464 0.69866,1.84096 0.14062,2.61132 -0.14106,0.19473 -0.32737,0.33605 -0.64648,0.48828 l -0.44727,0.2129 0.26563,0.267565 c 0.19397,0.19471 0.46723,0.67452 1.00781,1.77149 0.4078,0.82753 0.74023,1.51909 0.74023,1.53515 0,0.0161 -0.40734,0.0276 -0.90625,0.0273 l -0.9082,0 -0.55469,-1.23632 c -0.30526,-0.67996 -0.62722,-1.33526 -0.71679,-1.45703 -0.1867,-0.25381 -0.49912,-0.40625 -0.83594,-0.40625 l -0.23438,0 0,1.55078 0,1.55078 -0.79101,0 -0.79102,0 0,-3.835935 z m -3.04492,0.0156 0.0664,0.21484 c 0.29041,0.92351 2.25195,7.367715 2.25195,7.398435 0,0.0216 -0.38532,0.041 -0.85547,0.041 l -0.85351,0 -0.14063,-0.47852 c -0.0769,-0.26306 -0.17166,-0.59049 -0.21094,-0.72656 l -0.0723,-0.24805 -1.33008,0 -1.33203,0 -0.0723,0.24805 c -0.0393,0.13607 -0.13409,0.4635 -0.21094,0.72656 l -0.13867,0.47852 -0.7832,0 -0.7832,0 0.043,-0.15625 c 0.0241,-0.0851 0.5492,-1.80534 1.16602,-3.824215 l 1.12109,-3.67188 1.06641,0 z m 9.50977,0 1.189448,0 c 1.99801,0 2.79177,0.14195 3.52539,0.6289 0.89807,0.59611 1.36602,1.87632 1.26562,3.45703 -0.12397,1.951715 -1.04816,3.111375 -2.76171,3.462885 -0.36664,0.0752 -0.88616,0.10547 -1.86329,0.10547 l -1.355458,0 0,-3.828115 z m 6.728508,0 0.79102,0 0.79297,0 0,2.63671 c 0,2.940075 0.0266,3.210155 0.35742,3.541015 0.45629,0.4563 1.44467,0.47968 1.89843,0.0449 0.3581,-0.34308 0.38282,-0.57081 0.38282,-3.529295 l 0,-2.69336 0.79101,0 0.79102,0 0,2.62305 c -0.001,2.793355 -0.0374,3.205495 -0.33008,3.779295 -0.3334,0.65352 -1.00152,1.14727 -1.76758,1.30859 -0.47614,0.10026 -1.4864,0.0863 -1.9082,-0.0273 l -0.002,0 c -1.01125,-0.2723 -1.55683,-0.88749 -1.72657,-1.94336 -0.0396,-0.24645 -0.07,-1.557885 -0.0703,-3.083975 z m 7.125,0 2.50586,0 2.50781,0 0,0.625 0,0.625 -0.84179,0.0195 -0.83985,0.0176 -0.0176,2.55664 -0.0176,2.556635 0.85742,0 0.85937,0 0,0.62695 0,0.62695 -2.50781,0 -2.50586,0 0,-0.62695 0,-0.62695 0.85742,0 0.85742,0 0,-2.574215 0,-2.57227 -0.85742,0 -0.85742,0 0,-0.62695 z m 6.39844,0 0.94531,0 0.94336,0 1,2.1289 c 0.54977,1.17016 1.08858,2.320795 1.19727,2.556635 l 0.19726,0.42774 0.002,-2.556635 0.004,-2.55664 0.72461,0 0.72656,0 0,3.82617 0,3.828115 -0.93945,-0.004 -0.94141,-0.002 -1.1875,-2.57226 -1.1875,-2.574215 -0.0176,2.576165 -0.0156,2.57617 -0.72656,0 -0.72461,0 0,-3.826165 0,-0.002 z m -25.134768,1.30273 0,1.03906 0,1.04102 0.54493,-0.0449 c 0.35009,-0.0291 0.64913,-0.0983 0.83789,-0.19141 0.1614,-0.0796 0.35054,-0.22271 0.41992,-0.31836 0.18176,-0.25058 0.21056,-0.69796 0.0645,-0.97851 -0.18943,-0.36383 -0.46278,-0.47941 -1.21484,-0.51563 z m 34.732428,0 c -0.84668,0 -1.32931,0.54943 -1.49024,1.69922 -0.12739,0.91022 0.007,2.165905 0.28906,2.705075 0.12882,0.2467 0.42534,0.53277 0.64258,0.61914 0.22211,0.0883 0.86997,0.0904 1.09961,0.004 0.65996,-0.24935 0.97299,-1.03021 0.97461,-2.437495 0.002,-1.82328 -0.44628,-2.58985 -1.51562,-2.58984 z m -28.26758,0.0176 0,2.53906 0,2.541015 0.35156,0 c 0.1929,0 0.52608,-0.0327 0.74023,-0.0723 0.5155,-0.0953 0.82329,-0.26148 1.10938,-0.59571 0.38955,-0.45511 0.4707,-0.79562 0.4707,-1.972645 l 0,-1.02539 -0.23047,-0.45899 c -0.35247,-0.70237 -0.85327,-0.95508 -1.89258,-0.95508 z m -12.183598,0.4668 c -0.0114,-0.0151 -0.0352,-0.0133 -0.0527,0.004 -0.0465,0.0465 -0.89063,2.947455 -0.89063,3.060535 0,0.0793 0.15442,0.0977 0.88672,0.0977 0.48769,0 0.90008,-0.0238 0.91797,-0.0527 0.0272,-0.044 -0.79885,-3.026165 -0.86133,-3.109365 z m 2.47266,9.033195 c 2.13576,-9.3e-4 3.86773,1.12923 3.86719,2.52344 -0.003,0.0306 -0.007,0.0613 -0.0117,0.0918 0,0.0153 0.0117,0.0291 0.0117,0.0449 l 0,2.33789 1.05468,0 0,-2.33789 c 0,-0.0119 0.007,-0.0235 0.0117,-0.0352 -0.005,-0.0338 -0.009,-0.0677 -0.0117,-0.10156 -5.4e-4,-1.39372 1.73025,-2.52367 3.865238,-2.52344 2.13576,-9.3e-4 3.86773,1.12923 3.86719,2.52344 -0.002,0.03 -0.006,0.0599 -0.01,0.0898 0,0.0153 0.01,0.0311 0.01,0.0469 l 0,2.33789 1.08398,0 0,-2.33789 c 0,-0.0119 0.005,-0.0235 0.01,-0.0352 -0.004,-0.0338 -0.008,-0.0677 -0.01,-0.10157 -5.4e-4,-1.39367 1.73022,-2.52361 3.86524,-2.52343 2.13501,-1.7e-4 3.86577,1.12976 3.86523,2.52343 -0.002,0.03 -0.006,0.0599 -0.01,0.0898 0,0.0153 0.01,0.0311 0.01,0.0469 l 0,2.33789 1.08398,0 0,-2.33789 c 0,-0.0119 0.007,-0.0235 0.0117,-0.0352 -0.005,-0.0338 -0.009,-0.0677 -0.0117,-0.10156 -5.4e-4,-1.39371 1.73025,-2.52366 3.86524,-2.52344 2.13499,-2.2e-4 3.86577,1.12973 3.86523,2.52344 -0.002,0.03 -0.006,0.0599 -0.01,0.0898 0,0.0153 0.01,0.0311 0.01,0.0469 l 0,2.33789 1.14063,0 0,-2.33789 c 0,-0.0119 0.007,-0.0235 0.0117,-0.0352 -0.005,-0.0338 -0.009,-0.0677 -0.0117,-0.10156 -5.4e-4,-1.39371 1.73024,-2.52366 3.86523,-2.52344 2.13576,-9.3e-4 3.86773,1.12923 3.86719,2.52344 -0.003,0.03 -0.007,0.0599 -0.0117,0.0898 0,0.0153 0.0117,0.0311 0.0117,0.0469 l 0,2.33789 1.08398,0 0,-2.33789 c 0,-0.0119 0.005,-0.0235 0.01,-0.0352 -0.004,-0.0338 -0.008,-0.0677 -0.01,-0.10156 -5.4e-4,-1.39371 1.73025,-2.52367 3.86524,-2.52344 2.13499,-2.2e-4 3.86577,1.12973 3.86523,2.52344 -0.002,0.03 -0.006,0.0599 -0.01,0.0898 0,0.0153 0.01,0.0311 0.01,0.0469 l 0,2.33789 c 1.98491,-0.0274 3.09002,-0.0204 5.27153,0.0332 0.85379,0.021 1.54101,0.68696 1.54101,1.54101 l 0,9.46876 c 0,0.85405 -0.68696,1.54101 -1.54101,1.54101 -1.76813,0.0123 -3.51349,-0.0156 -5.26758,-0.0156 l 0,2.33593 c 0,0.0119 -0.003,0.0254 -0.01,0.0371 0.004,0.0332 0.008,0.0664 0.01,0.0996 5.4e-4,1.39321 -1.72905,2.52296 -3.86328,2.52344 -2.135,2.2e-4 -3.86578,-1.12973 -3.86524,-2.52344 0.002,-0.03 0.006,-0.0599 0.01,-0.0898 0,-0.0153 -0.01,-0.0291 -0.01,-0.0449 l 0,-2.33789 -1.05664,0 0,2.33789 c 0,0.0119 -0.005,0.0234 -0.01,0.0351 0.004,0.0332 0.008,0.0664 0.01,0.0996 5.4e-4,1.39371 -1.73024,2.52366 -3.86523,2.52344 -2.135,2.2e-4 -3.86578,-1.12973 -3.86524,-2.52344 0.002,-0.03 0.004,-0.0599 0.008,-0.0898 0,-0.0153 -0.008,-0.0291 -0.008,-0.0449 l 0,-2.33789 -1.08593,0 0,2.33789 c 0,0.0119 -0.005,0.0234 -0.01,0.0351 0.004,0.0332 0.008,0.0664 0.01,0.0996 5.4e-4,1.39367 -1.73022,2.52361 -3.86524,2.52344 -2.13502,1.7e-4 -3.86577,-1.12977 -3.86523,-2.52344 0.003,-0.03 0.007,-0.0599 0.0117,-0.0898 0,-0.0153 -0.0117,-0.0291 -0.0117,-0.0449 l 0,-2.33789 -1.08399,0 0,2.33789 c 0,0.0119 -0.005,0.0234 -0.01,0.0351 0.004,0.0332 0.008,0.0664 0.01,0.0996 5.4e-4,1.39371 -1.73024,2.52366 -3.86523,2.52344 -2.135,2.2e-4 -3.86578,-1.12973 -3.86524,-2.52344 0.002,-0.03 0.006,-0.0599 0.01,-0.0898 0,-0.0153 -0.01,-0.0291 -0.01,-0.0449 l 0,-2.33789 -1.14062,0 0,2.33789 c 0,0.0119 -0.005,0.0234 -0.01,0.0351 0.004,0.0332 0.008,0.0664 0.01,0.0996 5.4e-4,1.39371 -1.73024,2.52366 -3.86524,2.52344 -2.134988,2.2e-4 -3.865768,-1.12973 -3.865228,-2.52344 0.002,-0.03 0.006,-0.0599 0.01,-0.0898 0,-0.0153 -0.01,-0.0291 -0.01,-0.0449 l 0,-2.33789 -1.08398,0 0,2.33789 c 0,0.0119 -0.007,0.0234 -0.0117,0.0351 0.005,0.0338 0.009,0.0677 0.0117,0.10157 -0.001,1.39344 -1.73261,2.52241 -3.86719,2.52148 -2.13382,2.2e-4 -3.86412,-1.12853 -3.86524,-2.52148 0.003,-0.0306 0.007,-0.0613 0.0117,-0.0918 0,-0.0153 -0.0117,-0.0291 -0.0117,-0.0449 l 0,-2.33789 c 0,0 -3.36738,0.0182 -4.51562,0.0156 -0.85406,0 -1.54297,-0.68696 -1.54297,-1.54101 l 0,-9.46876 c 0,-0.85405 0.68897,-1.53095 1.54297,-1.54101 1.58309,-0.0187 3.03483,-0.0332 4.51172,-0.0332 l 0,-2.33789 c 0,-0.0119 0.005,-0.0235 0.0117,-0.0352 -0.005,-0.0338 -0.009,-0.0677 -0.0117,-0.10156 -5.4e-4,-1.39322 1.72905,-2.52296 3.86328,-2.52344 z m 44.138668,0.19727 c -1.90141,0 -3.44336,1.00582 -3.44336,2.24804 8.8e-4,0.76177 -2.7e-4,1.56397 0,2.22461 l 0,0.30664 0.47071,0 5.94726,0 0.46875,0 0,-0.30664 c -1.2e-4,-0.73618 -4e-5,-1.497 0,-2.22461 0,-1.24221 -1.54193,-2.24804 -3.44336,-2.24804 z m -44.144528,0.0176 c -1.90142,0 -3.44336,1.00778 -3.44336,2.25 8.8e-4,0.76176 -2.6e-4,1.562 0,2.22265 l 0,0.3086 0.4707,0 5.94727,0 0.4668,0 0,-0.3086 c -1.3e-4,-0.73619 0.004,-1.49504 0.004,-2.22265 0,-1.24222 -1.54389,-2.25 -3.44531,-2.25 z m 8.810548,0.008 c -1.901418,0 -3.443358,1.00778 -3.443358,2.25 8.7e-4,0.76178 -2.7e-4,1.56201 0,2.22265 l 0,0.3086 0.4707,0 5.943358,0 0.4707,0 0,-0.3086 c -1.3e-4,-0.73618 -4e-5,-1.49503 0,-2.22265 0,-1.24221 -1.53998,-2.25 -3.4414,-2.25 z m 8.8164,0 c -1.90141,0 -3.44336,1.00778 -3.44336,2.25 8.8e-4,0.76178 -2.9e-4,1.56201 0,2.22265 l 0,0.3086 0.47071,0 5.94726,0 0.4668,0 0,-0.3086 c -1.1e-4,-0.73618 -2e-5,-1.49503 0,-2.22265 0,-1.24221 -1.53998,-2.25 -3.44141,-2.25 z m 8.81055,0 c -1.90144,0 -3.44141,1.00778 -3.44141,2.25 8.6e-4,0.76178 -0.002,1.56201 -0.002,2.22265 l 0,0.3086 0.4707,0 5.94532,0 0.4707,0 0,-0.3086 c -1.3e-4,-0.73618 -4e-5,-1.49503 0,-2.22265 0,-1.24221 -1.54193,-2.25 -3.44336,-2.25 z m 8.85547,0 c -1.9014,0 -3.44531,1.00778 -3.44531,2.25 8.6e-4,0.76178 -2.8e-4,1.56201 0,2.22265 l 0,0.3086 0.4707,0 5.94531,0 0.47071,0 0,-0.3086 c -1e-4,-0.73618 -5e-5,-1.49503 0,-2.22265 0,-1.24221 -1.53996,-2.25 -3.44141,-2.25 z m -86.972658,3.95898 c -0.85406,0 -1.54297,0.68696 -1.54297,1.54102 l 0,11.26562 c 0,0.85406 0.68891,1.54297 1.54297,1.54297 l 18.81836,0 c 0.85406,0 1.54102,-0.68891 1.54102,-1.54297 l 0,-11.26562 c 0,-0.85406 -0.68696,-1.54102 -1.54102,-1.54102 z m 44.05469,1.47266 c -0.76398,0 -1.37891,0.61492 -1.37891,1.3789 l 0,8.46875 c 0,0.76399 0.61493,1.37891 1.37891,1.37891 l 60.234378,0 c 0.76398,0 1.3789,-0.61492 1.3789,-1.37891 l 0,-8.46875 c 0,-0.76398 -0.61492,-1.3789 -1.3789,-1.3789 z m 13.01367,11.90625 0,0.30664 c 1e-4,0.73618 4e-5,1.49699 0,2.22461 0,1.24221 1.54197,2.24804 3.443358,2.24804 1.90147,0 3.44336,-1.00582 3.44336,-2.24804 -8.5e-4,-0.76178 2.7e-4,-1.56397 0,-2.22461 l 0,-0.30664 -0.4707,0 -5.945308,0 z m 8.853518,0 0,0.30664 c 1.2e-4,0.73618 4e-5,1.49699 0,2.22461 0,1.24221 1.54187,2.24804 3.44336,2.24804 1.90139,0 3.4414,-1.00582 3.4414,-2.24804 -8.6e-4,-0.76178 0.002,-1.56397 0.002,-2.22461 l 0,-0.30664 -0.46875,0 -5.94727,0 z m 8.8125,0 0,0.30664 c 1.1e-4,0.73618 2e-5,1.49699 0,2.22461 0,1.24221 1.54001,2.24804 3.4414,2.24804 1.90138,0 3.44336,-1.00582 3.44336,-2.24804 -8.6e-4,-0.76178 3.8e-4,-1.56397 0,-2.22461 l 0,-0.30664 -0.4707,0 -5.94531,0 z m 8.8164,0 0,0.30664 c 1.3e-4,0.73618 4e-5,1.49699 0,2.22461 0,1.24221 1.54197,2.24804 3.44336,2.24804 1.90146,0 3.44141,-1.00582 3.44141,-2.24804 -8.7e-4,-0.76178 2.5e-4,-1.56397 0,-2.22461 l 0,-0.30664 -0.4707,0 -5.94336,0 z m 8.81055,0.008 0,0.30664 c 1.3e-4,0.73619 -0.002,1.497 -0.002,2.22461 0,1.24222 1.54188,2.25 3.44336,2.25 1.90137,0 3.44336,-1.00778 3.44336,-2.25 -8.6e-4,-0.76176 2.6e-4,-1.56396 0,-2.22461 l 0,-0.30664 -0.47071,0 -5.94531,0 z m -44.146478,0.0176 0,0.30664 c 1.2e-4,0.73618 4e-5,1.497 0,2.22461 0,1.24221 1.54198,2.25 3.44336,2.25 1.90137,0 3.44335,-1.00778 3.44336,-2.25 -8.8e-4,-0.76177 2.7e-4,-1.56397 0,-2.22461 l 0,-0.30664 -0.47071,0 -5.94531,0 z"
       id="rect5250"
       inkscape:connector-curvature="0"
       sodipodi:nodetypes="sscssssccsssscssssccsssssssssssssscccsssssssccsssssssssscscssssssccsccccsccccccsscscscccscssssscsccccssscccccscccccccccccccccccccccccscccccscscccscccsscccssccccscccccccccsscccccccccccccccccsssccccccccscccccccccccccccccccccccccccccccccccccccccccccccccccccccccccccccccccccccssccccscccsccsccscccsscccccsccccccccsccscccccsccscccccsccscccccsccscccccscsccsscsscccsccscccccsccscccccsccscccccsccscccccsccscccccsccssccscccsccccccccsscccccccsssccccccccssccccccccsscsccccccssccccccccsssssssssssscsssssscccscccccccccscscccccccscccccccccsccccccccsscccccccccsccccccccscccccccc" />
  </g>
</svg>
