<?xml version="1.0" encoding="UTF-8" standalone="no"?>
<svg
   xmlns:sketch="http://www.bohemiancoding.com/sketch/ns"
   xmlns:dc="http://purl.org/dc/elements/1.1/"
   xmlns:cc="http://creativecommons.org/ns#"
   xmlns:rdf="http://www.w3.org/1999/02/22-rdf-syntax-ns#"
   xmlns:svg="http://www.w3.org/2000/svg"
   xmlns="http://www.w3.org/2000/svg"
   xmlns:sodipodi="http://sodipodi.sourceforge.net/DTD/sodipodi-0.dtd"
   xmlns:inkscape="http://www.inkscape.org/namespaces/inkscape"
   width="159.44499"
   height="159.44499"
   viewBox="0 0 159.44499 159.44499"
   version="1.1"
   id="svg3371"
   inkscape:version="0.91 r13725"
   sodipodi:docname="student-projects-icon.svg">
  <metadata
     id="metadata3385">
    <rdf:RDF>
      <cc:Work
         rdf:about="">
        <dc:format>image/svg+xml</dc:format>
        <dc:type
           rdf:resource="http://purl.org/dc/dcmitype/StillImage" />
        <dc:title>penguin_superhero</dc:title>
      </cc:Work>
    </rdf:RDF>
  </metadata>
  <sodipodi:namedview
     pagecolor="#a7f0db"
     bordercolor="#666666"
     borderopacity="1"
     objecttolerance="10"
     gridtolerance="10"
     guidetolerance="10"
     inkscape:pageopacity="0"
     inkscape:pageshadow="2"
     inkscape:window-width="1920"
     inkscape:window-height="1014"
     id="namedview3383"
     showgrid="false"
     borderlayer="true"
     fit-margin-top="0"
     fit-margin-left="0"
     fit-margin-right="0"
     fit-margin-bottom="0"
     inkscape:zoom="3.0125695"
     inkscape:cx="141.53238"
     inkscape:cy="101.73201"
     inkscape:window-x="0"
     inkscape:window-y="27"
     inkscape:window-maximized="1"
     inkscape:current-layer="g4204" />
  <title
     id="title3373">penguin_superhero</title>
  <description>Created with Sketch (http://www.bohemiancoding.com/sketch)</description>
  <defs
     id="defs3375" />
  <g
     id="Page-1"
     sketch:type="MSPage"
     style="fill:none;fill-rule:evenodd;stroke:none;stroke-width:1"
     transform="translate(-16.430321,-18.237179)">
    <g
       inkscape:groupmode="layer"
       id="layer1"
       inkscape:label="circle" />
    <g
       id="g4204"
       transform="translate(2.3235978,-2.9874829)">
      <g
         id="g4445">
        <path
           id="path4193"
           style="fill:#ffffff;fill-opacity:1;stroke:none"
           d="M 170.87531,100.45966 A 77.222496,77.222496 0 0 1 93.652817,177.68216 77.222496,77.222496 0 0 1 16.430321,100.45966 77.222496,77.222496 0 0 1 93.652817,23.237167 77.222496,77.222496 0 0 1 170.87531,100.45966 Z"
           inkscape:connector-curvature="0" />
        <path
           style="fill:#3a5750;fill-opacity:1"
           id="path4410"
           d="m 108.99166,137.49802 c 7.177,-6.766 11.716,-16.284 11.716,-26.898 0,-13.087002 -6.868,-24.882002 -17.554,-31.511002 l 11.966,-20.722 -1.881,-1.09 2.96,-5.125 -7.737,-4.468 -2.96,5.121 -1.985,-1.142 -29.424999,50.974002 2.575,1.487 -3.649,6.318 6.456,3.725 3.65,-6.311 2.568,1.485 12.372,-21.436002 c 7.595999,4.833 12.454999,13.305002 12.454999,22.694002 0,14.835 -12.069999,26.898 -26.905999,26.898 -9.927,0 -21.684,0 -21.684,0 l 0,10.187 61.032999,0 0,-10.186 c 0,0 -9.033,0 -13.97,0 z"
           inkscape:connector-curvature="0" />
      </g>
    </g>
  </g>
</svg>
